PathFileType	4	(X/Y/Z)	/Users/itak/Documents/Research/Walk-IL/dataset/trc/00043_00004.trc
DataRate	CameraRate	NumFrames	NumMarkers	Units	OrigDataRate	OrigDataStartFrame	OrigNumFrames
100.000000	100.000000	4	53	mm	100.000000	177	474
Frame#	Time	RPSI			LPSI			L3			STRN			T10			C7			CLAV			RBAK			LBAK			LSHO			LUPA			LAEL			LAOL			LWTS			LWPS			LFRA			LIFD			LHPS			LHTS			RSHO			RUPA			RAEL			RAOL			RWTS			RWPS			RFRA			RIFD			RHTS			RHPS			RBHD			LFHD			RFHD			LBHD			LHIP			RHIP			RASI			LASI			LKNE			LTHI			LANK			LTIP			LTOE			LMT1			LMT5			LHEE			RKNE			RTHI			RANK			RTIP			RTOE			RMT1			RMT5			RHEE			
		X1	Y1	Z1	X2	Y2	Z2	X3	Y3	Z3	X4	Y4	Z4	X5	Y5	Z5	X6	Y6	Z6	X7	Y7	Z7	X8	Y8	Z8	X9	Y9	Z9	X10	Y10	Z10	X11	Y11	Z11	X12	Y12	Z12	X13	Y13	Z13	X14	Y14	Z14	X15	Y15	Z15	X16	Y16	Z16	X17	Y17	Z17	X18	Y18	Z18	X19	Y19	Z19	X20	Y20	Z20	X21	Y21	Z21	X22	Y22	Z22	X23	Y23	Z23	X24	Y24	Z24	X25	Y25	Z25	X26	Y26	Z26	X27	Y27	Z27	X28	Y28	Z28	X29	Y29	Z29	X30	Y30	Z30	X31	Y31	Z31	X32	Y32	Z32	X33	Y33	Z33	X34	Y34	Z34	X35	Y35	Z35	X36	Y36	Z36	X37	Y37	Z37	X38	Y38	Z38	X39	Y39	Z39	X40	Y40	Z40	X41	Y41	Z41	X42	Y42	Z42	X43	Y43	Z43	X44	Y44	Z44	X45	Y45	Z45	X46	Y46	Z46	X47	Y47	Z47	X48	Y48	Z48	X49	Y49	Z49	X50	Y50	Z50	X51	Y51	Z51	X52	Y52	Z52	X53	Y53	Z53	

178	1.77	-1072.012329101562	1051.298461914062	197.4098205566406	-1089.936645507812	1044.739868164062	37.25524520874023	-1086.129150390625	1108.836791992188	105.7609252929688	-848.159912109375	1287.048217773438	101.5106430053711	-1096.702026367188	1253.868774414062	96.38558197021484	-1027.670288085938	1517.205322265625	90.46083831787109	-882.35302734375	1415.354736328125	99.60951232910156	-1090.244995117188	1383.00244140625	166.7428894042969	-1044.53857421875	1478.71142578125	-9.283345222473145	-938.8555908203125	1482.241333007812	-80.63605499267578	-976.0029296875	1360.401733398438	-162.4952392578125	-992.407470703125	1140.844970703125	-188.7036743164062	-1055.10498046875	1134.644653320312	-103.3519668579102	-930.1436157226562	882.6294555664062	-124.5141067504883	-1005.853576660156	874.059814453125	-171.7025451660156	-989.2576293945312	1024.095458984375	-192.5955200195312	-924.7959594726562	696.9298095703125	-100.8485870361328	-981.1296997070312	781.6495971679688	-168.0083465576172	-917.7515258789062	787.0020141601562	-135.4023284912109	-958.6561279296875	1492.8095703125	269.1340026855469	-980.609375	1423.664794921875	338.3255615234375	-1048.039794921875	1162.717895507812	355.2073974609375	-1040.77685546875	1134.315185546875	258.7254943847656	-970.3372802734375	882.3709106445312	341.9857482910156	-1044.064575195312	884.4684448242188	399.0505676269531	-1050.246948242188	1087.801635742188	371.7777099609375	-998.3024291992188	696.0213623046875	327.6449890136719	-965.1124877929688	769.1565551757812	360.6341857910156	-1025.502197265625	777.907958984375	403.7905578613281	-963.2999877929688	1687.7998046875	19.75213050842285	-829.6448364257812	1716.36279296875	190.2627563476562	-801.0831909179688	1719.462036132812	95.37247467041016	-998.3060302734375	1681.531494140625	160.1682891845703	-1016.2216796875	935.256103515625	-79.31800079345703	-941.79833984375	945.9102783203125	289.3708190917969	-858.3471069335938	975.54150390625	197.7182464599609	-888.7725219726562	980.6446533203125	-38.32229232788086	-1036.558349609375	496.4513244628906	-19.80801391601562	-1034.4755859375	633.0931396484375	-57.14293670654297	-1221.667602539062	43.5071907043457	2.711605072021484	-1159.753173828125	281.2221984863281	-23.89570045471191	-1004.692687988281	41.10929107666016	75.1033935546875	-1064.814697265625	50.04345321655273	88.58901977539062	-1097.197998046875	42.03456878662109	-13.444655418396	-1292.815673828125	53.7176399230957	52.34282684326172	-779.9044799804688	547.9091796875	241.2137756347656	-872.8844604492188	795.8494262695312	284.5600280761719	-725.24267578125	54.91628265380859	216.5389099121094	-759.80419921875	422.9334716796875	241.0209197998047	-498.7098388671875	107.4582977294922	188.6613006591797	-559.9325561523438	97.22180938720703	155.2317504882812	-581.5343627929688	85.90843200683594	248.9561920166016	-774.4760131835938	42.81478118896484	167.7350158691406	
179	1.78	-1065.422729492188	1049.701171875	198.7875213623047	-1083.903564453125	1043.332397460938	38.69844436645508	-1079.776611328125	1107.516235351562	107.2594757080078	-841.3294677734375	1285.52783203125	102.6002960205078	-1090.241333007812	1252.544677734375	98.08844757080078	-1020.919799804688	1515.815673828125	92.36659240722656	-875.6640625	1413.798583984375	101.0356521606445	-1083.433959960938	1381.578002929688	168.611328125	-1038.059204101562	1477.495849609375	-7.403979778289795	-932.5196533203125	1480.99560546875	-78.97470092773438	-969.8502197265625	1359.276245117188	-160.9679107666016	-986.233154296875	1139.733154296875	-187.3771209716797	-1048.864501953125	1133.437622070312	-101.9970169067383	-923.9172973632812	881.4259033203125	-123.3958969116211	-999.4823608398438	872.9315185546875	-170.6056518554688	-983.0098266601562	1022.991271972656	-191.3686065673828	-918.261474609375	695.88720703125	-99.93364715576172	-974.6161499023438	780.5361328125	-166.9756164550781	-911.2451171875	785.9169311523438	-134.3746795654297	-951.49951171875	1491.07763671875	270.8223571777344	-973.3880004882812	1421.908447265625	339.9888916015625	-1041.555786132812	1161.158325195312	356.619384765625	-1034.416259765625	1132.810668945312	260.1133728027344	-964.6307373046875	880.6231689453125	343.1348266601562	-1038.289794921875	882.8668823242188	400.2686767578125	-1043.941772460938	1086.233032226562	373.1446838378906	-993.2131958007812	694.3942260742188	328.40185546875	-959.733154296875	767.3787841796875	361.607666015625	-1020.08203125	776.2037353515625	404.8105163574219	-956.6538696289062	1686.2109375	21.72547340393066	-822.8728637695312	1714.844848632812	192.1417846679688	-794.4310913085938	1718.098266601562	97.21702575683594	-991.4712524414062	1679.7138671875	162.1643981933594	-1010.668212890625	934.0498657226562	-78.18457794189453	-934.7980346679688	944.3873901367188	290.102294921875	-851.6058959960938	974.1275634765625	198.1507110595703	-882.906982421875	979.2368774414062	-37.86690521240234	-1032.792236328125	495.5855102539062	-19.37316131591797	-1029.87548828125	632.1859130859375	-56.12991714477539	-1221.573974609375	43.74931335449219	2.834594249725342	-1157.8076171875	281.2270812988281	-23.3625602722168	-1004.730529785156	41.10908889770508	75.00497436523438	-1064.761596679688	50.01863098144531	88.57741546630859	-1097.16015625	41.86331558227539	-13.50260448455811	-1292.830200195312	54.46331024169922	52.16824340820312	-772.5782470703125	546.7693481445312	242.7621459960938	-865.9157104492188	794.6494750976562	285.6642456054688	-713.9983520507812	54.34651184082031	216.9615631103516	-752.0091552734375	422.1300354003906	242.5115509033203	-487.561767578125	109.7886276245117	193.3455200195312	-548.0724487304688	98.97531127929688	158.7465515136719	-571.1304321289062	86.97779846191406	252.0098114013672	-762.3173217773438	42.07051849365234	167.3143920898438	
180	1.79	-1058.697875976562	1048.110107421875	200.2115631103516	-1077.717651367188	1041.9248046875	40.18193817138672	-1073.277587890625	1106.162109375	108.7903594970703	-834.388671875	1283.994750976562	103.7470932006836	-1083.634521484375	1251.190307617188	99.82978820800781	-1014.054077148438	1514.4013671875	94.33901977539062	-868.84912109375	1412.228637695312	102.5236434936523	-1076.497314453125	1380.113647460938	170.5338439941406	-1031.459716796875	1476.259155273438	-5.463453769683838	-926.0601806640625	1479.74462890625	-77.24414825439453	-963.5548095703125	1358.134765625	-159.3721313476562	-979.9031372070312	1138.605224609375	-185.9564514160156	-1042.458618164062	1132.213500976562	-100.5463714599609	-917.6114501953125	880.19482421875	-122.2152404785156	-992.9694213867188	871.7898559570312	-169.41748046875	-976.6051025390625	1021.870300292969	-190.048828125	-911.5393676757812	694.7968139648438	-98.90978240966797	-967.9785766601562	779.4044189453125	-165.8555145263672	-904.6040649414062	784.8031005859375	-133.2564239501953	-944.2290649414062	1489.316162109375	272.5817260742188	-966.0458374023438	1420.110717773438	341.719482421875	-1034.904296875	1159.549072265625	358.1182861328125	-1027.880859375	1131.251586914062	261.5908203125	-958.590087890625	878.8739013671875	344.3734436035156	-1032.177001953125	881.2149658203125	401.5834350585938	-1037.433227539062	1084.610473632812	374.5997924804688	-987.6487426757812	692.74560546875	329.2930603027344	-953.9059448242188	765.6119995117188	362.6871337890625	-1014.219299316406	774.4617919921875	405.9292602539062	-949.8839721679688	1684.634765625	23.80567169189453	-816.0145874023438	1713.28173828125	194.1523590087891	-787.6672973632812	1716.720825195312	99.20793914794922	-984.5432739257812	1677.87109375	164.2561950683594	-1004.978149414062	932.8384399414062	-76.99215698242188	-927.6866455078125	942.8617553710938	290.89599609375	-844.7612915039062	972.6842041015625	198.646484375	-876.9158935546875	977.7980346679688	-37.26781845092773	-1028.917846679688	494.7252807617188	-18.91522979736328	-1025.246948242188	631.3089599609375	-55.12930297851562	-1221.48291015625	44.06083297729492	2.921523332595825	-1155.78369140625	281.2627258300781	-22.84468269348145	-1004.825439453125	41.12442398071289	74.91703033447266	-1064.731323242188	50.00506973266602	88.56890106201172	-1097.127685546875	41.70017623901367	-13.57590484619141	-1292.823974609375	55.3590202331543	51.96684646606445	-765.0613403320312	545.59814453125	244.3197479248047	-858.8147583007812	793.4699096679688	286.6794128417969	-703.7962646484375	53.62923049926758	217.1546630859375	-744.275390625	421.1831970214844	243.9553070068359	-477.4233703613281	111.3387603759766	198.1124572753906	-537.165771484375	100.1305694580078	162.2688903808594	-561.846923828125	87.45346069335938	255.0099487304688	-751.1620483398438	41.29275131225586	166.5619659423828	
181	1.8	-1051.83984375	1046.534423828125	201.6840667724609	-1071.370971679688	1040.527587890625	41.71087265014648	-1066.630493164062	1104.784790039062	110.3564834594727	-827.352294921875	1282.4541015625	104.9615020751953	-1076.878051757812	1249.81396484375	101.6101455688477	-1007.068237304688	1512.972778320312	96.37996673583984	-861.9096069335938	1410.65234375	104.0791625976562	-1069.437866210938	1378.61669921875	172.5065460205078	-1024.732666015625	1475.009765625	-3.461665630340576	-919.4666748046875	1478.49609375	-75.44061279296875	-957.1131591796875	1356.9853515625	-157.7032318115234	-973.4244384765625	1137.472412109375	-184.4412384033203	-1035.891845703125	1130.982788085938	-98.99653625488281	-911.2095947265625	878.9533081054688	-120.9721450805664	-986.314697265625	870.6448974609375	-168.134521484375	-970.0487060546875	1020.743286132812	-188.6354675292969	-904.6513671875	693.67041015625	-97.78748321533203	-961.2189331054688	778.27001953125	-164.6486206054688	-897.817626953125	783.6798095703125	-132.0534057617188	-936.8497924804688	1487.532592773438	274.416748046875	-958.5924682617188	1418.279174804688	343.516845703125	-1028.082275390625	1157.89453125	359.704833984375	-1021.162170410156	1129.6396484375	263.1562194824219	-952.2175903320312	877.1267700195312	345.7064208984375	-1025.731811523438	879.5172119140625	402.993896484375	-1030.722045898438	1082.939208984375	376.1421203613281	-981.6023559570312	691.07373046875	330.3312377929688	-947.6365356445312	763.853515625	363.8799438476562	-1007.921630859375	772.6862182617188	407.1515197753906	-942.9879150390625	1683.085205078125	25.99442291259766	-809.0709838867188	1711.68359375	196.302734375	-780.7898559570312	1715.344848632812	101.3578872680664	-977.5314331054688	1676.005126953125	166.4443359375	-999.1500854492188	931.6387939453125	-75.74249267578125	-920.4641723632812	941.3321533203125	291.7513122558594	-837.8115234375	971.2098999023438	199.2167205810547	-870.7774658203125	976.3411865234375	-36.52804565429688	-1024.928344726562	493.8832092285156	-18.44275093078613	-1020.632690429688	630.4934692382812	-54.1771125793457	-1221.384155273438	44.46510696411133	2.968597173690796	-1153.678344726562	281.3441162109375	-22.35569763183594	-1004.951843261719	41.14604568481445	74.84314727783203	-1064.7138671875	50.00757217407227	88.55654907226562	-1097.098876953125	41.54745483398438	-13.67129039764404	-1292.790893554688	56.42086410522461	51.74758911132812	-757.356689453125	544.40869140625	245.8542327880859	-851.5689086914062	792.3028564453125	287.6162414550781	-694.6689453125	52.74522018432617	217.1184692382812	-736.60009765625	420.0984802246094	245.3250274658203	-468.3323669433594	112.0316543579102	202.8454895019531	-527.2573852539062	100.611686706543	165.7230072021484	-553.6905517578125	87.28819274902344	257.8828735351562	-741.0628662109375	40.4641227722168	165.5240173339844	
